<?xml version="1.0" encoding="utf-8"?>
<!-- Generator: Adobe Illustrator 17.1.0, SVG Export Plug-In . SVG Version: 6.00 Build 0)  -->
<!DOCTYPE svg PUBLIC "-//W3C//DTD SVG 1.1//EN" "http://www.w3.org/Graphics/SVG/1.1/DTD/svg11.dtd">
<svg version="1.1" xmlns="http://www.w3.org/2000/svg" xmlns:xlink="http://www.w3.org/1999/xlink" x="0px" y="0px"
	 viewBox="0 0 100 100" enable-background="new 0 0 100 100" xml:space="preserve">
<g id="circle_background" display="none">
	<circle display="inline" fill="#3399CC" cx="50" cy="50" r="50"/>
</g>
<g id="food_safety_1" display="none">
	<g display="inline">
		<path fill="#FFFFFF" d="M72.3,35.4l-1-0.4c0.1-0.2,1.9-6,7.4-6l0,1.9C73.5,31.3,72.3,35.4,72.3,35.4z"/>
		<path fill="#FFFFFF" d="M69.8,33.7c0,0,3.1-6.3-5.8-12.3C64,21.5,61,30.2,69.8,33.7z M69.1,32.1c0,0-2.9-2.7-4.1-8
			C65,24.1,68.2,27.5,69.1,32.1z"/>
		<path fill="#FFFFFF" d="M79.3,40.8c-0.8-1.3-2.1-2.2-3.6-2.7c-1.7-0.5-3.5,0.1-5-0.4c-1.7-0.5-3.1-2.6-4.8-3.3
			c-1.4-0.6-2.8-0.8-4.5-0.3c-2.8,0.9-5.1,3.5-5.6,6.1c-0.5,2.4-0.2,7.2,1.8,10.3h16.1c0.6-0.9,1.4-2.1,2-3.4l0.6-1.5
			c0.6-1.7,1-3.4,0.7-5.2c0,0,1.7,2.7,0.9,5.9l-0.5,1.5c-0.4,0.9-1.1,1.8-2.1,2.6h3.2c0.4-0.5,0.7-1,1-1.5
			C80.7,46.8,81,43.3,79.3,40.8z"/>
		<path fill="#FFFFFF" d="M23.1,50.6h5.4c-2.8-2-5.1-4.5-6.9-7.5c-3.1-6.2-1.8-13.2-1.7-13.6l-3.5-1.3
			C15.1,36.9,16.9,44.5,23.1,50.6z"/>
		<path fill="#FFFFFF" d="M33.5,49.9h17c0.1,0,0.1-0.1,0.2-0.1c-1.3-3.2-1.5-6.9-1.1-9.2L23.7,31C22.7,38.7,26.5,46.3,33.5,49.9z
			 M45.2,46.1c0.1-0.9,0.6-2,1.1-2c0.5,0,0.8,1.2,0.7,2.1c-0.1,0.9-0.5,1.3-1,1.3C45.5,47.5,45.1,47.1,45.2,46.1z M41.9,41.6
			c0.1-0.7,0.5-1.6,0.9-1.5c0.4,0,0.6,0.9,0.6,1.7c-0.1,0.7-0.4,1-0.8,1C42.1,42.7,41.8,42.3,41.9,41.6z M37.6,45.1
			c0.1-1.2,0.8-2.5,1.4-2.5c0.6,0.1,1,1.5,0.9,2.7c-0.1,1.2-0.7,1.6-1.3,1.6C37.9,46.9,37.4,46.3,37.6,45.1z M34.9,38.6
			c0.4-0.6,1.3-1.2,1.6-1c0.3,0.2,0.1,1.2-0.3,1.8c-0.4,0.6-0.9,0.7-1.3,0.5C34.6,39.7,34.5,39.3,34.9,38.6z M34,42.8
			c0.4,0.4-0.2,1.6-0.9,2.4c-0.8,0.8-1.4,0.8-1.8,0.3c-0.4-0.4-0.4-1.1,0.4-1.8C32.3,42.9,33.6,42.3,34,42.8z M28.2,35.1
			c0.5-0.5,1.4-0.9,1.7-0.6c0.3,0.3-0.1,1.1-0.7,1.7c-0.5,0.5-1,0.5-1.3,0.2C27.6,36.1,27.6,35.6,28.2,35.1z M28.2,41.5
			c-0.4-0.4-0.4-1.1,0.4-1.8c0.8-0.8,2-1.3,2.4-0.9c0.4,0.4-0.2,1.6-1,2.4C29.2,41.9,28.6,41.9,28.2,41.5z"/>
		<path fill="#FFFFFF" d="M84.9,56.1H15.1c5.5,8.4,14.4,14.6,25.1,17c-1.6,1.5-2.9,3.3-3.9,5.4h27.5c-1-2-2.3-4-3.8-5.4
			C70.5,70.6,79.4,64.4,84.9,56.1z M24.3,59.6c0,0,2.8,0.4,7,0.2c1.5,6.3,9.6,10,9.6,10C27,65.9,24.3,59.6,24.3,59.6z"/>
	</g>
</g>
<g id="food_safety_2" display="none">
	<g display="inline">
		<path fill="#FFFFFF" d="M47.1,35.5l2.4-0.1c0-0.6,0.7-13.7-10.7-18l-1.5,3.8C47.7,26,47,35.3,47.1,35.5z"/>
		<path fill="#FFFFFF" d="M74.5,13.1c-22.6,5.6-21.1,20.8-21.1,20.8C74.1,33.3,74.5,13.1,74.5,13.1z M70.5,17.7
			C62.5,25.6,56.1,31,56.1,31C61.5,22.4,70.5,17.7,70.5,17.7z"/>
		<path fill="#FFFFFF" d="M45.4,87.3c0,0,4.3,4.4,9.3-0.3l-5.1-2.1L45.4,87.3z"/>
		<path fill="#FFFFFF" d="M70.5,41.1c-3-2.3-6.2-3-9.4-2.9c-4.2,0.2-8.6,3.4-12.5,3.2c-3.5-0.2-6.8-2.8-10.6-3
			c-3.5-0.1-6.8,0.9-9.4,2.8c-5.3,3.9-7.5,11.1-6.5,16.9c1,6.1,4.8,12.5,9.3,17.3c5.4,5.7,11.3,7.4,18.6,3.1
			c1.2,0.8,3.1,2.1,4.7,2.4c12.8,2.3,21.4-15,22.7-23C78.2,52,75.6,45,70.5,41.1z M27.3,57.4l4.1-0.4c0.6,7.5,3.1,13.9,3.1,13.9
			C29.7,65.9,27.7,61.3,27.3,57.4z M31.3,53.6l-4,0.3c0.8-7.1,6.4-11.5,6.4-11.5C31.9,45.7,31.3,49.7,31.3,53.6z"/>
	</g>
</g>
<g id="food_safety_3" display="none">
	<g display="inline">
		<g>
			<g>
				<g>
					<path fill="#FFFFFF" d="M83.7,44.3L57.6,19c-2-2-4.7-3-7.6-3c-2.9,0-5.6,1.1-7.6,3L16.4,44.3c-2,2-3.1,4.6-3.1,7.4
						c0,2.8,1.1,5.4,3.1,7.4l26.1,25.3c2,2,4.7,3,7.6,3c2.9,0,5.6-1.1,7.6-3L83.7,59c2-2,3.1-4.6,3.1-7.4
						C86.9,48.8,85.7,46.2,83.7,44.3z M79,54.5L53,79.7c-0.8,0.8-1.8,1.2-2.9,1.2c-1.1,0-2.1-0.4-2.9-1.2L21,54.5
						c-0.8-0.8-1.2-1.8-1.2-2.8c0-1.1,0.4-2.1,1.2-2.8l26.1-25.3c0.8-0.8,1.8-1.2,2.9-1.2c1.1,0,2.1,0.4,2.9,1.2L79,48.8
						c0.8,0.8,1.2,1.8,1.2,2.8C80.3,52.7,79.8,53.7,79,54.5z"/>
				</g>
			</g>
		</g>
		<g>
			<path fill="#FFFFFF" d="M55.6,58.6c2.1-2.1,1.9-5.6,1.9-5.6s-3.5-0.2-5.6,1.9c-0.4,0.4-0.7,0.8-0.9,1.2l0-3.3
				c1.2-0.1,3.2-0.5,4.6-1.9c2.1-2.1,1.9-5.6,1.9-5.6s-3.5-0.2-5.6,1.9c-0.4,0.4-0.7,0.9-1,1.3l0-1.7c0.7-1,1.6-2.5,1.6-4.3
				c0-2.9-2.6-5.3-2.6-5.3s-2.6,2.4-2.6,5.3c0,1.8,1,3.4,1.7,4.3l0,1.5c-0.2-0.4-0.5-0.9-0.9-1.2c-2.1-2.1-5.6-1.9-5.6-1.9
				s-0.2,3.5,1.9,5.6c1.4,1.4,3.4,1.8,4.6,1.9l0,3.5c-0.3-0.5-0.6-1-1-1.4c-2.1-2.1-5.6-1.9-5.6-1.9s-0.2,3.5,1.9,5.6
				c1.4,1.4,3.5,1.8,4.7,1.9l0,3.6c-0.3-0.5-0.6-1.1-1.1-1.5c-2.1-2.1-5.6-1.9-5.6-1.9s-0.2,3.5,1.9,5.6c1.5,1.5,3.6,1.8,4.8,1.9
				l0.1,6.5l1.9,0l-0.1-6.5c1.2-0.1,3.1-0.6,4.5-1.9c2.1-2.1,1.9-5.6,1.9-5.6s-3.5-0.2-5.6,1.9c-0.3,0.3-0.6,0.7-0.8,1.1l0-3.2
				C52.3,60.4,54.2,60,55.6,58.6z"/>
			<rect x="42.9" y="33.6" fill="#FFFFFF" width="1.9" height="8"/>
			<rect x="49" y="27.4" fill="#FFFFFF" width="1.9" height="8"/>
			<rect x="55" y="33.6" fill="#FFFFFF" width="1.9" height="8"/>
		</g>
	</g>
</g>
<g id="intm_1" display="none">
	<path display="inline" fill-rule="evenodd" clip-rule="evenodd" fill="#FFFFFF" d="M26,61.9l12.2-3.2l2.4,1.8l5.1,13.7l1.7-7.9
		l-2-1.6l1.2-3.7h1.8h1.7h1.8l1.2,3.7l-2,1.6l1.8,8.2l4.6-14l2.3-1.8l12.7,3.2l0.6,0.2l0.4,0.5c0.4,0.5,0.8,1.1,1.2,1.7
		c2.5,5.5,4.1,11.6,2.5,20.2h-1.7H22.6H21l-0.3-1.6c-0.9-4.8-0.9-8.9-0.1-12.2c0.8-3.5,2.3-6.2,4.6-8.3l0.3-0.3L26,61.9L26,61.9z
		 M30.1,38.6h1.9l0.6,4.1c0.7,3.8,2.3,7.3,4.5,10c3.1,3.8,7.4,6.2,12.2,6.2l0,0c4.8,0,9.1-2.4,12.2-6.2c2.1-2.6,3.7-6,4.4-9.7
		l0.8-4.4h1.3h1.6h2.5v-4.8l-3-0.9c0.3-4.7-2.3-12.1-6.6-14.9c-0.8,3.6-2.3,6.5-4.6,8.7c-0.3,0-0.6,0-0.8,0c2-4.5,3-7.9,3.1-10.4
		c-3-1.9-6.6-3-10.5-3c-4.1,0-8,1.2-11.3,3.3c0.2,2.4,1.2,5.7,3.1,10.1c-0.3,0-0.6,0-0.8,0c-2.2-2.1-3.7-4.9-4.5-8.4
		c-4.4,2.7-7.1,10-7,14.6l-3.2,1v4.8H30.1L30.1,38.6z M36.1,38.6h9h17.6h0.1c-0.1,4.6-1.6,8.7-4,11.7c-2.4,3-5.7,4.8-9.3,4.8l0,0
		c-3.6,0-6.9-1.8-9.3-4.8C37.7,47.3,36.1,43.2,36.1,38.6z"/>
</g>
<g id="intm_2" display="none">
	<path display="inline" fill-rule="evenodd" clip-rule="evenodd" fill="#FFFFFF" d="M49.4,22.1h9v17.5h2.1v4.6l1.9-0.7l1.5-7.9
		l13.4-0.1l1.5,21.4l0.8,18.6l-4.4-0.1l-2.7-16l-5.3,4.8l0.8,11.2l-3.4-0.1l-3-13l7.1-8.8l-1.8-8.9l-1.7,2.4l-4.6,0.3v0.1h-1.8H47.3
		v-8h2.1V22.1L49.4,22.1z M19.4,34.5l13.8,0.1l2.4,11.1l6.9,2l-1,2l-9.8,0.6l-1.4-6.3l-1,8.6l6.4,9.5l-1.7,13.7l-3.5,0.1l-0.6-11.8
		l-4.4-6l0.2,7.6l-2.4,10.2l-3.3,0l-0.2-12.2l-1.4-12.3L19.4,34.5L19.4,34.5z M70.2,23c-3.1,0-5.5,2.5-5.5,5.5
		c0,3.1,2.5,5.5,5.5,5.5c3.1,0,5.5-2.5,5.5-5.5C75.7,25.5,73.2,23,70.2,23L70.2,23z M26.6,21.8c3.1,0,5.7,2.6,5.7,5.7
		c0,3.1-2.5,5.7-5.7,5.7c-3.1,0-5.7-2.5-5.7-5.7C20.9,24.3,23.4,21.8,26.6,21.8L26.6,21.8z M37.7,66.9v8h22.9v-8h-6.9V52.5h-9v14.4
		H37.7z"/>
</g>
<g id="intm_3" display="none">
	<path display="inline" fill-rule="evenodd" clip-rule="evenodd" fill="#FFFFFF" d="M53.1,19.4l0.2,0l0.1,0c3.4,0.5,6.6,1.5,9.5,2.9
		l0.1,0.1l0.2,0.1c4.1,2.1,7.6,5,10.3,8.6c2.7,3.5,4.6,7.6,5.6,12.1l0,0.2l0,0.1c0.2,1,0.4,2.1,0.5,3.2l-0.2,2.7
		c-0.2,2.7-0.9,5.1-2,7c-2,3.5-5.2,5.9-9.4,6.8l0.8-3.1c1-0.3,2-0.7,3.1-1c0.4-1,0.8-2,1.1-3.1c0.3-1.1,0.5-2.3,0.7-3.4h0l0-0.2h-6
		c-0.1,1.9-0.3,3.8-0.6,5.7l-4.5,1.3c0.4-2.4,0.7-4.7,0.9-7H51.7v10.1L39,66l1.2,1.4L51.8,80c-2.1,0.2-4.2,0.1-6.4-0.1l-0.2,0
		l-0.1,0c-6.8-0.9-12.8-4-17.4-8.6c-4.1-4.1-7-9.4-8.3-15.3l0-0.4c-0.6-3.1-0.7-6.3-0.3-9.6l0-0.1l0-0.1c0.5-3.4,1.5-6.6,2.9-9.5
		l0.1-0.1l0.1-0.2c2.1-4.1,5-7.6,8.6-10.3c3.5-2.7,7.6-4.7,12.1-5.6l0.2,0l0.1,0l-0.1-0.1l0.1,0C46.4,19.1,49.8,19,53.1,19.4
		L53.1,19.4z M46.3,67.6l12.8,13.5l1-4.2c14.2-0.1,22.2-12.1,22.6-27.6c-1.1,12.5-10,18.1-20.1,17.8l1.1-4.5L46.3,67.6L46.3,67.6z
		 M73.7,48.2c-0.1-1.3-0.2-2.5-0.5-3.7l0-0.2l0-0.1c-0.2-1.1-0.6-2.2-1-3.2c-1.7-0.6-3.5-1.2-5.2-1.7c0.5,2.9,0.7,5.9,0.7,8.8H73.7
		L73.7,48.2z M69.3,35.7c-0.2-0.3-0.4-0.6-0.6-0.9c-0.6-0.8-1.3-1.6-2.1-2.4c-0.5-0.5-1.1-1-1.7-1.5c0.4,1.3,0.8,2.6,1.1,3.8
		C67.1,35,68.2,35.3,69.3,35.7L69.3,35.7z M59.1,27.3c-1.1-0.5-2.2-0.9-3.4-1.2c-1.1-0.3-2.3-0.5-3.4-0.7l0,0c-0.2,0-0.4,0-0.6-0.1
		v7c3.2,0.2,6.5,0.6,9.7,1.2C60.8,31.5,60,29.4,59.1,27.3L59.1,27.3z M47.4,25.4c-1.1,0.1-2.2,0.2-3.2,0.5l-0.2,0l-0.1,0
		c-0.9,0.2-1.8,0.5-2.7,0.8c-1,2.1-1.8,4.3-2.4,6.5c2.9-0.5,5.7-0.8,8.6-0.8V25.4L47.4,25.4z M35.6,29.6c-0.4,0.3-0.7,0.5-1.1,0.8
		c-0.8,0.6-1.6,1.4-2.4,2.1c-1,1-1.9,2-2.7,3.2c1.6-0.6,3.2-1,4.7-1.5C34.6,32.6,35.1,31.1,35.6,29.6L35.6,29.6z M26.4,41.4
		c-0.2,0.7-0.5,1.3-0.6,2c-0.3,1-0.5,2-0.6,3l0,0.2c0,0.3-0.1,0.6-0.1,0.9L25,47.7c0,0.2,0,0.3,0,0.5h7.4c0-3.1,0.3-6.3,0.8-9.4
		C30.9,39.5,28.7,40.3,26.4,41.4L26.4,41.4z M25.1,52.4c0.2,2.2,0.8,4.3,1.6,6.3c2.3,1.1,4.7,1.9,7,2.6c-0.6-3-1-6-1.2-9H25.1
		L25.1,52.4z M30,64.6c0.6,0.8,1.3,1.6,2.1,2.3c1.2,1.2,2.5,2.2,3.9,3.2c-0.4-1.4-0.8-2.7-1.2-4.1C33.2,65.6,31.6,65.1,30,64.6
		L30,64.6z M47.4,63.4V52.4H36.7c0.2,3.3,0.7,6.7,1.5,10.1C41.3,63.1,44.3,63.4,47.4,63.4L47.4,63.4z M51.7,36.6v11.5h11.8
		c0-3.4-0.3-6.7-1-10C58.9,37.3,55.2,36.8,51.7,36.6L51.7,36.6z M37.7,37.6c-0.7,3.5-1.1,7-1.1,10.5h10.9V36.5
		C44.2,36.6,40.9,37,37.7,37.6z"/>
</g>
<g id="apply_1" display="none">
	<g display="inline">
		<path fill-rule="evenodd" clip-rule="evenodd" fill="#FFFFFF" d="M50.5,51.4l1.4-0.2l0.4-12.5c0.1-4.4,6-5.4,6.2,0.5l1.1,10.4
			c1.5-0.4,3,1.3,4.5,1.5c1.8-1.2,4.9,1.9,4.9,1.9c5.9,1,1.1,13.4,0,17.5H52.6C45.5,60.7,46.6,54.2,50.5,51.4z"/>
		<path fill="#FFFFFF" d="M51.4,68h19.9h1.9v1.9V82V84h-1.9H51.4h-1.9V82V69.9V68H51.4L51.4,68z M69.3,71.9h-16v8.2h16V71.9z"/>
		<circle fill-rule="evenodd" clip-rule="evenodd" fill="#FFFFFF" cx="53.5" cy="76.1" r="3"/>
		<g>
			<rect x="35.6" y="30" fill-rule="evenodd" clip-rule="evenodd" fill="#FFFFFF" width="21.3" height="3.2"/>
			<path fill-rule="evenodd" clip-rule="evenodd" fill="#FFFFFF" d="M35.5,38.2h15.3c0.1-1.3,0.6-2.4,1.3-3.2H35.5V38.2L35.5,38.2z
				 M54,38.2h2.8V38c-0.2-0.7-0.5-1.1-0.8-1.3c-0.2-0.1-0.3-0.1-0.5-0.1c-0.2,0-0.4,0.1-0.6,0.2C54.5,37,54.1,37.5,54,38.2z"/>
			<path fill-rule="evenodd" clip-rule="evenodd" fill="#FFFFFF" d="M35.5,43.5h15.1l0.1-3.2H35.5V43.5L35.5,43.5z M53.8,43.5h3
				v-3.2h-2.9L53.8,43.5z"/>
			<rect x="35.5" y="45.5" fill-rule="evenodd" clip-rule="evenodd" fill="#FFFFFF" width="9.5" height="3.2"/>
		</g>
		<path fill="#FFFFFF" d="M62.3,16H36.6l-9.8,10.5v32.7V62h2.7h16.8c-0.4-1.4-0.6-2.6-0.6-3.8c0-0.6,0-1.1,0.1-1.7H32.3v-35h27.2
			v14.7c0.3,0.8,0.5,1.7,0.6,2.7l1,9c0.7,0.2,1.4,0.5,2,0.9c0.3,0.2,0.7,0.4,0.9,0.5c0.3-0.1,0.6-0.2,1-0.2V18.8V16H62.3L62.3,16z
			 M49.8,62c-0.5-1.4-0.7-2.7-0.8-3.9c0-0.6,0-1.1,0.1-1.6h10.4v-5.3L60,51c0.3-0.1,0.9,0.3,1.5,0.6c0.7,0.4,1.5,0.8,2.4,1l0.6,0.1
			l0.5-0.3v6.8V62h-2.7H49.8z"/>
		<polygon fill-rule="evenodd" clip-rule="evenodd" fill="#FFFFFF" points="36.6,16 26.9,26.5 36.7,26.5 		"/>
	</g>
</g>
<g id="apply_2" display="none">
	<path display="inline" fill-rule="evenodd" clip-rule="evenodd" fill="#FFFFFF" d="M54.7,28l6.5-0.1l5.7,21.4l3.2,12l2.8,10.3
		l-14.5,3.7l-3.6,0.9l-13.7,3.5L38.9,70l-3.8-17l-2.2-10l-3.3-14.6c2.8,0,5.5-0.1,8.1-0.1c2.9-0.1,5.8-0.1,8.6-0.2L54.7,28L54.7,28z
		 M54.7,24.3l-8.4,0.1c-2.8,0-5.7,0.1-8.6,0.2c-3.4,0.1-6.9,0.1-10.4,0.2l-2.3,0l0.5,2.2l3.8,16.8l2.2,10l3.8,17l2.6,11.6l0.4,1.9
		l1.9-0.5l15.6-3.9l3.6-0.9l16.3-4.1l1.9-0.5L77,72.5l-3.3-12.2l-3.2-12L64,24.2C60.9,24.1,57.8,24.2,54.7,24.3L54.7,24.3z"/>
	<path display="inline" fill-rule="evenodd" clip-rule="evenodd" fill="#FFFFFF" d="M55.9,20.3c-3.6,0-7.4,0-11.2,0
		c-3.9,0-8,0-12.2,0c0.9,3.6,1.7,7.3,2.6,11c4.2-0.2,8.2-0.3,12.2-0.5c3.8-0.2,7.6-0.3,11.2-0.5C57.7,27,56.8,23.6,55.9,20.3z"/>
	<path display="inline" fill-rule="evenodd" clip-rule="evenodd" fill="#FFFFFF" d="M48.1,16.4c-2.9,0-5.9-0.1-9-0.1
		c0.9,3.5,1.7,7.1,2.6,10.6c3.1-0.1,6-0.2,9-0.2C49.9,23.2,49,19.8,48.1,16.4z"/>
	<path display="inline" fill-rule="evenodd" clip-rule="evenodd" fill="#FFFFFF" d="M61.1,37.6c-3.7,0.3-7.4,0.5-11.4,0.8
		c-4.1,0.3-8.3,0.6-12.6,0.9c0.2,1,0.4,1.9,0.7,2.9c4.4-0.4,8.6-0.7,12.7-1.1c3.9-0.3,7.7-0.6,11.4-0.9
		C61.5,39.3,61.3,38.4,61.1,37.6z"/>
	<path display="inline" fill-rule="evenodd" clip-rule="evenodd" fill="#FFFFFF" d="M62.3,42c-3.7,0.3-7.4,0.7-11.4,1
		c-4.1,0.4-8.3,0.8-12.7,1.2c0.2,1,0.5,2,0.7,2.9c4.4-0.5,8.6-0.9,12.7-1.3c3.9-0.4,7.7-0.8,11.4-1.2C62.7,43.8,62.5,42.9,62.3,42z"
		/>
	<path display="inline" fill-rule="evenodd" clip-rule="evenodd" fill="#FFFFFF" d="M63.4,46.8c-3.7,0.4-7.4,0.9-11.4,1.3
		c-4.1,0.5-8.3,1-12.7,1.5c0.2,1,0.5,2,0.7,3c4.4-0.6,8.6-1.1,12.7-1.6c3.9-0.5,7.7-1,11.4-1.5C63.9,48.6,63.7,47.7,63.4,46.8z"/>
	<path display="inline" fill-rule="evenodd" clip-rule="evenodd" fill="#FFFFFF" d="M64.6,51.3c-3.7,0.5-7.4,1-11.4,1.6
		c-4.1,0.6-8.3,1.1-12.7,1.7c0.2,1,0.5,2,0.7,3c4.4-0.7,8.6-1.3,12.7-1.9c3.9-0.6,7.7-1.2,11.4-1.7C65.1,53.1,64.9,52.2,64.6,51.3z"
		/>
	<path display="inline" fill-rule="evenodd" clip-rule="evenodd" fill="#FFFFFF" d="M53.3,58.1c-1.8,0.3-3.7,0.6-5.5,0.9
		c-1.9,0.3-3.9,0.6-5.8,0.9c0.2,1,0.5,1.9,0.7,2.9c2-0.3,3.9-0.7,5.8-1c1.9-0.3,3.7-0.6,5.5-1C53.8,59.9,53.5,59,53.3,58.1z"/>
	<polygon display="inline" fill-rule="evenodd" clip-rule="evenodd" fill="#FFFFFF" points="40,81.3 36.8,73.4 24.4,76.6 38.3,84.3 
		77.5,74.4 	"/>
</g>
<g id="apply_3" display="none">
	<g display="inline">
		<g>
			<path fill="#FFFFFF" d="M34.6,41.5c-0.8,0-1.4,0.6-1.4,1.4c0,0.8,0.6,1.4,1.4,1.4h24.7c0.8,0,1.4-0.6,1.4-1.4
				c0-0.8-0.6-1.4-1.4-1.4H34.6z"/>
		</g>
		<g>
			<path fill="#FFFFFF" d="M34.6,47.8c-0.8,0-1.4,0.6-1.4,1.4c0,0.8,0.6,1.4,1.4,1.4h24.7c0.8,0,1.4-0.6,1.4-1.4
				c0-0.8-0.6-1.4-1.4-1.4H34.6z"/>
		</g>
		<path fill="#FFFFFF" d="M66.7,76.4v0.2h-0.2l-2.1,1.6c-0.3,0.2-0.9,0.1-0.9-0.5c0,0,0-0.5,0-1.1H26.6V22.7c1,0,20.8,0,20.8,0
			l0.9,0c0.5,0,1.1,0,1.9,0.3l0.4,0.5c2.4,2.3,3.2,8.1,3.2,11.5c0,0.6,0.5,1.1,1.1,1.1l0.5,0c3.6,0.1,8,0.3,10.7,2.8l0.2,0.2
			c0.2,0.6,0.3,1.2,0.3,1.8l0,0c0,0,0,6,0,13.1l3.4,2.6V40.8l0,0c0-5.2-4.9-10-7.6-12.6L62,27.7c-7.8-7.8-11-8.4-13.7-8.4l-0.9,0
			H26.1c-1.7,0-3,1.2-3,2.8v55.1c0,1.6,1.3,2.8,2.8,2.8h41.4c1.6,0,2.8-1.3,2.8-2.8v-3.4L66.7,76.4z M59.6,30.1l0.6,0.6
			c1,1,2.6,2.6,4,4.3c-2.6-1-5.5-1.1-8-1.2c-0.1-1.7-0.4-5.2-1.6-8.2C55.9,26.7,57.6,28.1,59.6,30.1z"/>
		<path fill-rule="evenodd" clip-rule="evenodd" fill="#FFFFFF" d="M63.1,50.5c-0.8,0.4-1.3,1.2-1.3,2.1c0,0,0,2.7,0,4.5
			c-2.4,0-7.5,0-8.7,0c-1.3,0-2.3,1.2-2.3,2.3c0,1.1,0,11.5,0,11.5c0,1.3,1,2.3,2.3,2.3c0,0,6.3,0,8.7,0c0,1.8,0,4.5,0,4.5
			c0,0.9,0.4,1.6,1.2,2c0.8,0.4,1.7,0.4,2.4-0.1L82,67c0.7-0.6,1-1.3,0.9-2c0-0.7-0.4-1.3-1-1.7l0.1,0.1L65.4,50.8
			C64.8,50.3,63.8,50.2,63.1,50.5z M65.2,60.5c0,0,0-3.8,0-5.6c2.7,2.1,11.7,8.9,13.5,10.2c-1.7,1.3-10.8,8.2-13.5,10.2
			c0-1.8,0-5.7,0-5.7s-9.1,0-11,0c0-1.7,0-7.6,0-9.2C56,60.5,65.2,60.5,65.2,60.5z"/>
	</g>
</g>
<g id="itm_1" display="none">
	<g display="inline">
		<path fill="#FFFFFF" d="M67.6,74.9c-1.4,0-3.9,0-6.9,0c0-0.4,0.1-0.7,0.1-1.1v-5.6c2.8,0,5.3,0,6.8,0c7.4,0,13.5-6,13.5-13.5
			c0-7.4-6-13.5-13.5-13.5c-2.1,0-4,0.5-5.8,1.3l-2.7-2.7C56,32.8,48.9,27.8,40.7,27.8c-11.1,0-20.2,9-20.2,20.2
			c0,11.1,9,20.2,20.2,20.2v5.6c0,0.4,0.1,0.7,0.1,1.1c0,0-0.1,0-0.1,0c-14.9,0-26.9-12.1-26.9-26.9c0-14.9,12.1-26.9,26.9-26.9
			c10.1,0,18.9,5.6,23.5,13.8c1.1-0.2,2.2-0.3,3.4-0.3c11.2,0,20.2,9,20.2,20.2C87.8,65.9,78.7,74.9,67.6,74.9z"/>
		<path fill="#FFFFFF" d="M38.8,57.7c-1.3-1.3-1.3-3.4,0-4.8l9.5-9.5c1.3-1.3,3.4-1.3,4.8,0l9.5,9.5c1.3,1.3,1.3,3.4,0,4.8
			c-1.3,1.3-3.4,1.3-4.8,0l-3.8-3.8v19.9c0,1.9-1.5,3.4-3.4,3.4c-1.9,0-3.4-1.5-3.4-3.4V53.9l-3.8,3.8C42.3,59,40.1,59,38.8,57.7z"
			/>
	</g>
</g>
<g id="itm_2" display="none">
	<path display="inline" fill="#FFFFFF" d="M23.3,22.7h52c2.3,0,4.3,1,5.8,2.6c1.4,1.6,2.3,3.7,2.3,6.1v10.1l-2.8-0.8l-1,3.3
		c-0.1,0.2-0.3,0.8-0.4,1c0,0-0.1,0-0.1,0V31.4c0-1.3-0.5-2.4-1.2-3.2c-0.7-0.7-1.6-1.2-2.6-1.2h-52c-1,0-1.9,0.5-2.6,1.2
		c-0.7,0.8-1.2,1.9-1.2,3.2v26.8c0,1.3,0.5,2.4,1.2,3.2c0.7,0.7,1.6,1.2,2.6,1.2h31.6V67H23.3c-2.3,0-4.3-1-5.8-2.6
		c-1.4-1.6-2.3-3.7-2.3-6.1V31.4c0-2.3,0.9-4.5,2.3-6.1C19,23.7,21,22.7,23.3,22.7L23.3,22.7z M40.1,46.4v2h23v-2H40.1L40.1,46.4z
		 M34.3,40.2v2h28.8v-2H34.3L34.3,40.2z M27.4,33.8v2h35.7v-2H27.4L27.4,33.8z M26,39.4V53l3-4.2l4.3,8.5l2.5-1.3l-4.3-8.4l4.2-0.2
		L26,39.4L26,39.4z M67.5,52.7v1.6c0.6,0.3,1.1,1.4,1.1,2.6c0,1.3-0.5,2.3-1.1,2.6v2.1c1.7-0.1,3.3-0.9,4.4-2.1c1.2-1.3,2-3.2,2-5.3
		c0-0.3,0-0.6,0-0.9C71.7,53,69.6,52.7,67.5,52.7L67.5,52.7z M65.9,48.9h-0.5l-0.6,3h4l-0.6-3h-0.5c0-0.6,0.1-1.1,0.3-1.4
		c0.2-0.4,0.5-0.5,0.8-0.6c1-0.1,2.5,0.6,4.1,1.2l0,0l0,0v0c0.6,0.2,1.1,0.5,1.6,0.7c0.6,0.2,1.1,0.4,1.7,0.6
		c1.6,0.5,3.2,0.7,4.6,0.1c1.4-0.5,2.6-1.8,3.3-4.2l0.1-0.5l-0.5-0.1L83,44.6l-0.5-0.1l-0.1,0.5c-0.5,1.7-1.3,2.6-2.2,2.9v0
		c-1,0.4-2.2,0.2-3.4-0.2c-1-0.3-2.1-0.7-3.1-1.2c-0.9-0.4-1.8-0.7-2.6-1c-0.8-0.3-1.6-0.4-2.4-0.4c-1,0.1-1.7,0.4-2.3,1.3
		C66.1,47,65.9,47.8,65.9,48.9L65.9,48.9z M76.1,53.8c-0.3-0.1-0.6-0.1-0.8-0.2c0,0.2,0,0.5,0,0.8c0,2.5-0.9,4.8-2.4,6.4
		c-1.5,1.7-3.6,2.7-5.9,2.7c-2.3,0-4.4-1-5.9-2.7c-1.5-1.6-2.4-3.9-2.4-6.4c0-0.3,0-0.5,0-0.8c-0.3,0.1-0.6,0.1-0.8,0.2v17.8
		c0,5,4.1,9.1,9.1,9.1l0,0c5,0,9.1-4.1,9.1-9.1V53.8L76.1,53.8z M60.2,53.4c0,0.3,0,0.6,0,0.9c0,2.1,0.8,3.9,2,5.3
		c1.1,1.2,2.6,2,4.2,2.1v-2c-0.7-0.3-1.1-1.4-1.1-2.7c0-1.3,0.5-2.3,1.1-2.7v-1.6C64.3,52.7,62.2,52.9,60.2,53.4L60.2,53.4z
		 M38.1,68.5h16.7v3.1c0,0.9,0.1,1.8,0.3,2.7H34v-1.6C34,70.3,35.8,68.5,38.1,68.5L38.1,68.5z M83.3,51.7c-0.4,0.3-0.8,0.5-1.3,0.6
		c-1,0.4-1.9,0.5-2.9,0.5v13c0.7-0.4,1.4-1,1.9-1.6c1.4-1.6,2.3-3.7,2.3-6.1V51.7z"/>
</g>
<g id="iit_online_1" display="none">
	<g display="inline">
		<circle fill="#FFFFFF" cx="50.5" cy="64.5" r="3.2"/>
		<path fill="#FFFFFF" d="M55.4,73.4c0-2.7-2.2-4.9-4.9-4.9c-2.7,0-4.9,2.2-4.9,4.9v1.6h9.7V73.4z"/>
		<circle fill="#FFFFFF" cx="72.7" cy="64.5" r="3.2"/>
		<path fill="#FFFFFF" d="M77.5,73.4c0-2.7-2.2-4.9-4.9-4.9s-4.9,2.2-4.9,4.9v1.6h9.7L77.5,73.4L77.5,73.4z"/>
		<circle fill="#FFFFFF" cx="61.6" cy="75.5" r="3.2"/>
		<path fill="#FFFFFF" d="M66.5,84.5c0-2.7-2.2-4.9-4.9-4.9c-2.7,0-4.9,2.2-4.9,4.9v1.6h9.7V84.5z"/>
		<circle fill="#FFFFFF" cx="61.6" cy="53.5" r="3.2"/>
		<path fill="#FFFFFF" d="M66.4,62.4c0-2.7-2.2-4.9-4.9-4.9c-2.7,0-4.9,2.2-4.9,4.9V64h9.7L66.4,62.4L66.4,62.4z"/>
		<circle fill="#FFFFFF" cx="78.3" cy="35.6" r="3.2"/>
		<path fill="#FFFFFF" d="M83,44.7c0-2.7-2.1-5.1-4.8-5.1s-4.9,2.4-4.9,5.1l0.1,13.8h9.7L83,44.7z"/>
		<path fill="#FFFFFF" d="M34.8,73.7c-0.3,0-0.6-0.1-0.8-0.3c-0.6-0.4-0.8-1.3-0.3-1.9L64,28.8c0.4-0.6,1.3-0.8,1.9-0.3
			c0.6,0.4,0.8,1.3,0.3,1.9L35.9,73.1C35.7,73.5,35.2,73.7,34.8,73.7z"/>
		<path fill="#FFFFFF" d="M45.8,19.9H18.3c-0.8,0-1.4,0.6-1.4,1.4v19.3v2.8c0,0.8,0.6,1.4,1.4,1.4h11c0,1.2,0,4.1-4.1,4.1
			c-0.8,0-1.4,0.6-1.4,1.4c0,0.8,0.6,1.4,1.4,1.4H32h6.9c0.8,0,1.4-0.6,1.4-1.4c0-0.8-0.6-1.4-1.4-1.4c-4.1,0-4.1-2.9-4.1-4.1h11
			c0.8,0,1.4-0.6,1.4-1.4v-2.8V21.3C47.2,20.5,46.6,19.9,45.8,19.9z M19.6,22.7h24.8v16.5H19.6V22.7z"/>
	</g>
</g>
<g id="iit_online_2" display="none">
	<g display="inline">
		<rect x="51.5" y="24.4" fill="#FFFFFF" width="21.3" height="15.2"/>
		<path fill="#FFFFFF" d="M79.3,20.9c-9.5-9.5-24.9-9.5-34.4,0c-0.2,0.2-0.3,0.3-0.4,0.5c-4.4,4.7-6.7,10.7-6.7,16.7
			c-4.8,0-9.6,1.4-13.7,4.2c-1.2,0.8-2.4,1.8-3.5,2.9c-9.5,9.5-9.5,24.9,0,34.4c9.5,9.5,24.9,9.5,34.4,0c0.6-0.6,1.2-1.3,1.8-2
			c3.6-4.4,5.3-9.8,5.3-15.2c1.5,0,3.1-0.1,4.6-0.4c4.6-0.9,9-3.1,12.6-6.7C88.8,45.8,88.8,30.4,79.3,20.9z M31.1,48.7
			c2.6,0,4.6,2.1,4.6,4.6c0,2.6-2.1,4.6-4.6,4.6c-2.6,0-4.6-2.1-4.6-4.6C26.5,50.8,28.5,48.7,31.1,48.7z M58.9,61.4l-6.8,6.8
			c0.1,0.3,0.2,0.6,0.2,1c0,1.1-0.7,1.9-1.7,2.2l-1.4,0.1h-4.6c0,0-0.5,0-0.8,0c-1.3,0-2.8-1.9-2.8-1.9l-2.5-2.5v10.4H21.9V65.4
			c0-3,3.1-6.1,6.1-6.1c0,0,6.7,0,8.4,0c1,0,2.1,0.2,2.9,1c1.3,1.3,5.5,6.6,5.5,6.6H50c0.4,0,0.7,0.1,1,0.2l6.8-6.8
			c0.3-0.3,0.8-0.3,1.1,0C59.2,60.6,59.2,61.1,58.9,61.4z M75.8,42.6c0,0.8-0.7,1.5-1.5,1.5h-9.1v3c0,1.7,2.9,3,4.6,3h3
			c0.8,0,1.5,0.7,1.5,1.5c0,0.8-0.7,1.5-1.5,1.5H62.2H51.5c-0.8,0-1.5-0.7-1.5-1.5c0-0.8,0.7-1.5,1.5-1.5h3c1.7,0,4.6-1.4,4.6-3v-3
			H50c-0.8,0-1.5-0.7-1.5-1.5V22.9c0-0.8,0.7-1.5,1.5-1.5h24.3c0.8,0,1.5,0.7,1.5,1.5V42.6z"/>
	</g>
</g>
<g id="iit_online_3" display="none">
	<g display="inline">
		<path fill="#FFFFFF" d="M49.9,37.5c2,0,3.8-1.3,5.3-3.2c1.9-2.5,3.1-6,3.1-9.2c0-5.5-3.7-9.9-8.4-9.9c-0.1,0-0.1,0-0.2,0
			c-4.6,0.1-8.3,4.5-8.3,9.9c0,3.1,1.2,6.6,3.1,9.2C46.1,36.1,47.9,37.5,49.9,37.5z"/>
		<path fill="#FFFFFF" d="M50,61.7c7.8,0,14.8-3.9,19-9.9V49c0-8.6-5.7-11.3-13.4-13.8l-4.1,10.9v-5.5l0.7-2h-4.2l0.8,2.2l0,5.3
			l-4.6-10.9C35,37.5,30.6,40.2,30.6,49v2.3C34.8,57.6,41.9,61.7,50,61.7z"/>
		<path fill="#FFFFFF" d="M81.5,58.3c-1.3,0-2.5,0.5-3.5,1.2L74,56.4l-2.9-2.3c-0.7,1-1.5,1.9-2.3,2.8c-4.3,4.7-10.4,7.8-17.2,8.3
			c-0.6,0-1.2,0.1-1.8,0.1c-0.6,0-1.2-0.1-1.8-0.1c-6.8-0.5-12.8-3.6-17.2-8.3c-0.8-0.9-1.6-1.8-2.3-2.8l-2.9,2.3l-3.8,3
			c-1-0.7-2.1-1.1-3.4-1.1c-3.2,0-5.8,2.6-5.8,5.8s2.6,5.8,5.8,5.8s5.8-2.6,5.8-5.8c0-0.6-0.1-1.2-0.3-1.7l4-3.2
			c5,5.6,12.1,9.2,20.1,9.7v4.8c-2.3,0.8-3.9,2.9-3.9,5.4c0,3.2,2.6,5.8,5.8,5.8c3.2,0,5.8-2.6,5.8-5.8c0-2.6-1.7-4.8-4.1-5.5v-4.8
			c8-0.5,15-4.1,20.1-9.7l4.1,3.2l0.3-0.3c-0.2,0.6-0.4,1.3-0.4,2c0,3.2,2.6,5.8,5.8,5.8s5.8-2.6,5.8-5.8
			C87.2,60.9,84.6,58.3,81.5,58.3z"/>
	</g>
</g>
<g id="pro_develop_1">
	<rect x="32.9" y="26.3" fill="#FFFFFF" width="31" height="2.5"/>
	<rect x="32.9" y="31.8" fill="#FFFFFF" width="31" height="2.5"/>
	<circle fill="#FFFFFF" cx="67.8" cy="49.6" r="6.3"/>
	<path fill="#FFFFFF" d="M63.7,59.2c0.1,0,0.1,0.1,0.2,0.1v-0.1H63.7z"/>
	<path fill="#FFFFFF" d="M69.1,21.6l0,14.6c1.5,0.1,2.9,0.5,4.2,1.1V17.5H54.6h-2.1H23.6v51.9v5.4v3.6v4.2h4.2h3.6h8.9h19.4h13.1v0
		h0.4v-6L69.1,74l0,4.3h-7.5h-3.7H27.8V21.6H69.1z"/>
	<path fill="#FFFFFF" d="M32.9,39.7h25.9c1.1-1,2.4-1.9,3.8-2.5H32.9V39.7z"/>
	<path fill="#FFFFFF" d="M32.9,50.7h21.6c0-0.4-0.1-0.7-0.1-1.1c0-0.5,0-0.9,0.1-1.4H32.9V50.7z"/>
	<path fill="#FFFFFF" d="M32.9,45.2h22.3c0.3-0.9,0.7-1.7,1.2-2.5H32.9V45.2z"/>
	<path fill="#FFFFFF" d="M32.9,56.2h23.3c-0.4-0.8-0.8-1.6-1.1-2.5H32.9V56.2z"/>
	<rect x="32.9" y="59.2" fill="#FFFFFF" width="25" height="2.5"/>
	<rect x="32.9" y="64.7" fill="#FFFFFF" width="25" height="2.5"/>
	<rect x="32.9" y="70.2" fill="#FFFFFF" width="25" height="2.5"/>
	<path fill="#FFFFFF" d="M60.7,61v13.2l7-4.2l7,4.2V61c-2.1,1.3-4.5,2-7,2C65.3,63,62.8,62.3,60.7,61z"/>
	<path fill="#FFFFFF" d="M67.8,39c-5.8,0-10.6,4.7-10.6,10.6c0,3.1,1.4,5.9,3.5,7.8c1.9,1.7,4.3,2.7,7.1,2.7c2.7,0,5.2-1,7-2.7
		c2.2-1.9,3.5-4.7,3.5-7.9C78.4,43.8,73.6,39,67.8,39z M71.3,57.3c-1.1,0.5-2.3,0.8-3.5,0.8s-2.4-0.3-3.5-0.8c-2.9-1.3-5-4.3-5-7.7
		c0-4.7,3.8-8.5,8.5-8.5s8.5,3.8,8.5,8.5C76.3,53,74.2,56,71.3,57.3z"/>
</g>
</svg>
