<?xml version="1.0" encoding="utf-8"?>
<!-- Generator: Adobe Illustrator 17.0.0, SVG Export Plug-In . SVG Version: 6.00 Build 0)  -->
<!DOCTYPE svg PUBLIC "-//W3C//DTD SVG 1.1//EN" "http://www.w3.org/Graphics/SVG/1.1/DTD/svg11.dtd">
<svg version="1.1" xmlns="http://www.w3.org/2000/svg" xmlns:xlink="http://www.w3.org/1999/xlink" x="0px" y="0px" width="128px"
	 height="256px" viewBox="0 0 128 256" enable-background="new 0 0 128 256" xml:space="preserve">
<g id="feed_icon">
	<g id="lines__x003C_Group_x003E_">
		<circle id="circle" fill="#FFFFFF" cx="27.03" cy="101.643" r="13.75"/>
		<g>
			<path fill="#FFFFFF" d="M13.296,66.978c12.885,0,24.994,5.037,34.096,14.183c9.116,9.159,14.136,21.35,14.136,34.329h19.852
				c0-37.695-30.542-68.363-68.084-68.363V66.978z"/>
		</g>
		<g>
			<path fill="#FFFFFF" d="M13.325,31.786c45.916,0,83.271,37.559,83.271,83.724h19.852c0-57.112-46.26-103.576-103.122-103.576
				V31.786z"/>
		</g>
	</g>
</g>
<g id="feed_icon_copy">
	<g id="lines__x003C_Group_x003E__1_">
		<circle id="circle_1_" fill="#F98E22" cx="27.03" cy="229.643" r="13.75"/>
		<g>
			<path fill="#F98E22" d="M13.296,194.978c12.885,0,24.994,5.037,34.096,14.183c9.116,9.159,14.136,21.35,14.136,34.329h19.852
				c0-37.695-30.542-68.363-68.084-68.363V194.978z"/>
		</g>
		<g>
			<path fill="#F98E22" d="M13.325,159.786c45.916,0,83.271,37.559,83.271,83.724h19.852c0-57.112-46.26-103.576-103.122-103.576
				V159.786z"/>
		</g>
	</g>
</g>
</svg>
